<?xml version="1.0" encoding="UTF-8"?>
<!DOCTYPE svg PUBLIC "-//W3C//DTD SVG 1.1//EN" "http://www.w3.org/Graphics/SVG/1.1/DTD/svg11.dtd">
<svg xmlns="http://www.w3.org/2000/svg" version="1.1" width="395px" height="497px" style="shape-rendering:geometricPrecision; text-rendering:geometricPrecision; image-rendering:optimizeQuality; fill-rule:evenodd; clip-rule:evenodd" xmlns:xlink="http://www.w3.org/1999/xlink">
<g><path style="opacity:1" fill="#dedfe0" d="M -0.5,-0.5 C 131.167,-0.5 262.833,-0.5 394.5,-0.5C 394.5,134.5 394.5,269.5 394.5,404.5C 362.702,434.463 331.036,464.629 299.5,495C 231.167,495.667 162.833,495.667 94.5,495C 92.9586,493.629 91.6253,492.129 90.5,490.5C 90.0269,489.094 89.0269,488.427 87.5,488.5C 86.027,486.605 84.3603,484.939 82.5,483.5C 82.1667,481.167 80.8333,479.833 78.5,479.5C 73.5,475.167 68.8333,470.5 64.5,465.5C 63.0892,463.086 61.0892,461.419 58.5,460.5C 53.5,456.167 48.8333,451.5 44.5,446.5C 43.4154,444.413 41.7488,443.08 39.5,442.5C 32.1937,435.86 25.1937,428.86 18.5,421.5C 17.4154,419.413 15.7488,418.08 13.5,417.5C 8.83333,413.167 4.16667,408.833 -0.5,404.5C -0.5,269.5 -0.5,134.5 -0.5,-0.5 Z M 379.5,13.5 C 379.667,130.167 379.5,246.834 379,363.5C 378.617,362.944 378.117,362.611 377.5,362.5C 372.243,357.927 366.243,354.594 359.5,352.5C 355.51,350.413 351.177,349.08 346.5,348.5C 330.629,345.472 316.296,348.806 303.5,358.5C 293.8,362.425 284.133,362.425 274.5,358.5C 265.488,351.996 255.488,347.663 244.5,345.5C 243.737,344.732 242.737,344.232 241.5,344C 254.148,342.986 266.815,342.486 279.5,342.5C 291.629,344.014 303.629,343.348 315.5,340.5C 319.687,339.787 323.687,338.787 327.5,337.5C 328.5,337.5 329.5,337.5 330.5,337.5C 334.337,337.069 338.003,336.402 341.5,335.5C 352.59,335.127 363.59,335.793 374.5,337.5C 375.509,331.24 374.842,325.24 372.5,319.5C 372.5,319.167 372.5,318.833 372.5,318.5C 372.59,315.848 371.924,313.515 370.5,311.5C 369.26,302.877 367.26,294.544 364.5,286.5C 363.943,281.835 362.61,277.502 360.5,273.5C 359.697,269.761 358.697,266.095 357.5,262.5C 356.733,258.851 355.4,255.518 353.5,252.5C 351.346,245.54 348.679,238.874 345.5,232.5C 345.573,230.973 344.906,229.973 343.5,229.5C 342.008,225.182 340.008,221.182 337.5,217.5C 337.573,215.973 336.906,214.973 335.5,214.5C 332.001,207.327 327.001,201.327 320.5,196.5C 319.564,195.026 318.23,194.026 316.5,193.5C 312.715,191.572 308.715,190.238 304.5,189.5C 300.761,187.898 296.761,186.898 292.5,186.5C 284.953,184.995 277.62,185.328 270.5,187.5C 270.167,187.5 269.833,187.5 269.5,187.5C 266.084,187.528 263.084,188.528 260.5,190.5C 251.387,193.39 244.054,198.723 238.5,206.5C 236.738,207.262 235.738,208.596 235.5,210.5C 232.132,214.569 229.799,219.236 228.5,224.5C 227.076,226.515 226.41,228.848 226.5,231.5C 225.638,234.823 224.972,238.323 224.5,242C 224.972,245.677 225.638,249.177 226.5,252.5C 228.354,263.893 234.354,272.227 244.5,277.5C 244.973,278.906 245.973,279.573 247.5,279.5C 249.509,281.065 251.843,282.065 254.5,282.5C 256.042,283.301 257.708,283.634 259.5,283.5C 263.646,284.647 267.98,284.814 272.5,284C 275.797,283.796 278.797,282.963 281.5,281.5C 283.262,280.738 284.262,279.404 284.5,277.5C 285.268,276.737 285.768,275.737 286,274.5C 286.82,267.986 286.653,261.653 285.5,255.5C 285.658,252.098 285.324,248.764 284.5,245.5C 284.206,241.9 283.54,238.4 282.5,235C 283.025,234.308 283.692,233.808 284.5,233.5C 294.781,234.476 305.114,234.809 315.5,234.5C 315.912,255.832 316.245,277.165 316.5,298.5C 314.196,301.141 311.862,303.808 309.5,306.5C 307.251,307.08 305.585,308.413 304.5,310.5C 302.181,310.992 300.181,311.992 298.5,313.5C 294.013,314.992 289.68,316.658 285.5,318.5C 275.833,319.833 266.167,319.833 256.5,318.5C 250.914,316.525 245.247,314.525 239.5,312.5C 223.206,306.195 210.206,295.862 200.5,281.5C 200.573,279.973 199.906,278.973 198.5,278.5C 196.093,272.28 194.093,265.946 192.5,259.5C 192.387,254.482 192.053,249.482 191.5,244.5C 192.27,236.207 193.603,227.874 195.5,219.5C 196.703,215.89 197.703,212.223 198.5,208.5C 200.204,205.744 201.537,202.744 202.5,199.5C 210.154,187.846 220.487,179.513 233.5,174.5C 242.056,171.395 250.722,169.062 259.5,167.5C 268.558,167.273 277.558,166.44 286.5,165C 285.601,163.348 284.601,161.848 283.5,160.5C 283.573,158.973 282.906,157.973 281.5,157.5C 277.646,149.641 271.98,143.307 264.5,138.5C 257.741,141.879 251.075,145.213 244.5,148.5C 241.603,149.129 238.936,150.129 236.5,151.5C 233.603,152.129 230.936,153.129 228.5,154.5C 221.356,156.366 214.356,158.366 207.5,160.5C 204.273,160.676 201.273,161.343 198.5,162.5C 191.863,163.686 185.197,164.686 178.5,165.5C 177.167,165.5 175.833,165.5 174.5,165.5C 174.5,178.5 174.5,191.5 174.5,204.5C 173.336,236.331 173.169,268.331 174,300.5C 178.73,310.292 183.73,319.959 189,329.5C 190.039,330.71 191.206,331.71 192.5,332.5C 192.973,333.906 193.973,334.573 195.5,334.5C 202.53,338.734 210.197,341.4 218.5,342.5C 214.707,343.431 211.041,344.765 207.5,346.5C 203.203,347.655 199.203,349.321 195.5,351.5C 191.96,351.753 188.627,352.419 185.5,353.5C 174.878,353.412 164.545,351.745 154.5,348.5C 151.249,346.043 147.582,344.376 143.5,343.5C 137.602,340.653 131.269,339.319 124.5,339.5C 119.979,338.322 115.312,338.322 110.5,339.5C 104.07,339.982 98.0696,341.649 92.5,344.5C 90.9731,344.427 89.9731,345.094 89.5,346.5C 71.4023,350.797 53.4023,350.463 35.5,345.5C 34.2196,344.069 32.5529,343.402 30.5,343.5C 24.8142,340.569 19.3142,337.236 14,333.5C 13.5,227.167 13.3333,120.834 13.5,14.5C 135.43,13.502 257.43,13.1687 379.5,13.5 Z M 47.5,360.5 C 60.2193,363.052 72.886,362.719 85.5,359.5C 89.3375,359.978 92.6709,358.978 95.5,356.5C 98.9889,355.342 102.322,354.009 105.5,352.5C 105.833,352.5 106.167,352.5 106.5,352.5C 115.162,351.205 123.829,351.205 132.5,352.5C 133.568,353.434 134.901,353.768 136.5,353.5C 137.93,354.537 139.597,355.204 141.5,355.5C 145.987,358.081 150.654,360.081 155.5,361.5C 157.515,362.924 159.848,363.59 162.5,363.5C 162.833,363.5 163.167,363.5 163.5,363.5C 168.748,365.022 174.248,365.689 180,365.5C 185.752,365.689 191.252,365.022 196.5,363.5C 196.833,363.5 197.167,363.5 197.5,363.5C 199.403,363.204 201.07,362.537 202.5,361.5C 206.723,359.556 211.056,357.889 215.5,356.5C 221.789,355.628 228.122,355.295 234.5,355.5C 239.038,356.634 243.705,357.801 248.5,359C 255.832,361.999 262.832,365.499 269.5,369.5C 272.084,371.472 275.084,372.472 278.5,372.5C 281.695,373.236 285.029,373.903 288.5,374.5C 294.481,374.034 300.148,372.7 305.5,370.5C 310.984,368.593 315.984,365.927 320.5,362.5C 322.786,362.405 324.786,361.738 326.5,360.5C 334.232,359.136 341.899,359.47 349.5,361.5C 352.939,363.204 356.605,364.538 360.5,365.5C 361.965,366.737 363.632,367.737 365.5,368.5C 365.973,369.906 366.973,370.573 368.5,370.5C 369.585,372.587 371.251,373.92 373.5,374.5C 374.779,377.112 376.445,379.445 378.5,381.5C 379.473,383.068 379.64,384.735 379,386.5C 378.617,385.944 378.117,385.611 377.5,385.5C 375.049,382.723 372.049,380.723 368.5,379.5C 366.65,377.428 364.317,376.095 361.5,375.5C 359.703,374.27 357.703,373.604 355.5,373.5C 352.196,371.583 348.529,370.416 344.5,370C 336.988,369.178 329.655,369.345 322.5,370.5C 322.167,370.5 321.833,370.5 321.5,370.5C 317.085,370.861 313.085,372.194 309.5,374.5C 305.747,375.859 302.081,377.193 298.5,378.5C 291.201,379.35 283.868,379.683 276.5,379.5C 272.138,378.628 267.804,377.628 263.5,376.5C 259.5,375.167 255.5,373.833 251.5,372.5C 246.16,370.077 240.493,368.411 234.5,367.5C 227.123,366.236 219.79,366.236 212.5,367.5C 206.948,367.798 201.948,369.464 197.5,372.5C 192.167,374.494 186.833,376.161 181.5,377.5C 175.059,377.672 168.726,377.006 162.5,375.5C 153.186,371.511 143.853,367.511 134.5,363.5C 123.369,359.133 112.035,358.467 100.5,361.5C 95.8354,362.057 91.5021,363.39 87.5,365.5C 84.2328,366.753 80.8994,367.753 77.5,368.5C 74.2727,368.676 71.2727,369.343 68.5,370.5C 68.1667,370.5 67.8333,370.5 67.5,370.5C 59.5,371.833 51.5,371.833 43.5,370.5C 40.3811,369.13 37.0477,368.13 33.5,367.5C 26.6542,364.492 20.1542,360.826 14,356.5C 13.5034,354.19 13.3367,351.857 13.5,349.5C 19.5826,351.705 25.5826,354.205 31.5,357C 36.7078,358.802 42.0411,359.969 47.5,360.5 Z M 29.5,378.5 C 32.5046,380.277 35.8379,381.277 39.5,381.5C 44.7483,383.022 50.2483,383.689 56,383.5C 60.0152,383.499 63.8485,383.165 67.5,382.5C 68.5,382.5 69.5,382.5 70.5,382.5C 76.1044,381.785 81.4377,380.451 86.5,378.5C 90.4895,377.174 94.4895,375.84 98.5,374.5C 106.383,372.781 114.383,372.114 122.5,372.5C 128.962,374.213 135.295,376.546 141.5,379.5C 141.973,380.906 142.973,381.573 144.5,381.5C 144.973,382.906 145.973,383.573 147.5,383.5C 150.619,384.87 153.952,385.87 157.5,386.5C 159.515,387.924 161.848,388.59 164.5,388.5C 171.842,391.037 179.176,391.037 186.5,388.5C 191.095,387.968 195.429,386.635 199.5,384.5C 203.987,383.008 208.32,381.342 212.5,379.5C 220.882,378.255 229.215,378.588 237.5,380.5C 239.515,381.924 241.848,382.59 244.5,382.5C 247.939,384.204 251.605,385.538 255.5,386.5C 259.502,388.61 263.835,389.943 268.5,390.5C 268.833,390.5 269.167,390.5 269.5,390.5C 279.5,393.167 289.5,393.167 299.5,390.5C 302.152,390.59 304.485,389.924 306.5,388.5C 311.167,386.833 315.833,385.167 320.5,383.5C 329.816,380.904 339.149,380.904 348.5,383.5C 352.162,384.832 355.828,386.165 359.5,387.5C 359.973,388.906 360.973,389.573 362.5,389.5C 365.681,391.592 368.681,393.925 371.5,396.5C 372.5,398.167 373.833,399.5 375.5,400.5C 374.564,403.272 372.73,405.272 370,406.5C 366.274,403.93 362.44,401.597 358.5,399.5C 354.624,396.871 350.29,395.204 345.5,394.5C 335.476,392.983 325.81,393.983 316.5,397.5C 313.848,397.41 311.515,398.076 309.5,399.5C 294.465,403.376 279.465,403.376 264.5,399.5C 259.475,396.932 254.141,394.932 248.5,393.5C 237.083,389.56 225.416,388.56 213.5,390.5C 210.848,390.41 208.515,391.076 206.5,392.5C 200.906,393.232 195.573,394.565 190.5,396.5C 178.071,399.404 165.738,399.071 153.5,395.5C 134.964,382.016 114.964,379.349 93.5,387.5C 90.8478,387.41 88.5145,388.076 86.5,389.5C 81.6304,389.69 76.9637,390.356 72.5,391.5C 65.515,392.089 58.515,392.422 51.5,392.5C 44.5233,391.234 37.5233,389.567 30.5,387.5C 24.5475,385.774 19.0475,383.107 14,379.5C 13.5034,377.19 13.3367,374.857 13.5,372.5C 18.8228,374.493 24.1561,376.493 29.5,378.5 Z M 24.5,398.5 C 27.5046,400.277 30.8379,401.277 34.5,401.5C 47.3318,404.572 60.3318,405.238 73.5,403.5C 81.9239,403.29 89.9239,401.623 97.5,398.5C 97.8333,398.5 98.1667,398.5 98.5,398.5C 100.786,398.405 102.786,397.738 104.5,396.5C 114.302,394.753 123.969,395.253 133.5,398C 138.992,400.689 144.326,403.523 149.5,406.5C 152.505,408.277 155.838,409.277 159.5,409.5C 170.337,412.227 181.004,411.894 191.5,408.5C 194.152,408.59 196.485,407.924 198.5,406.5C 212.638,401.724 226.971,400.89 241.5,404C 245.154,405.274 248.82,406.44 252.5,407.5C 253.93,408.537 255.597,409.204 257.5,409.5C 273.45,416.127 289.783,417.127 306.5,412.5C 309.067,412.279 311.401,411.612 313.5,410.5C 315.292,410.634 316.958,410.301 318.5,409.5C 325.953,407.028 333.619,406.028 341.5,406.5C 342.167,406.5 342.833,406.5 343.5,406.5C 345.302,407.458 347.302,408.125 349.5,408.5C 351.456,409.492 353.456,410.492 355.5,411.5C 357.27,412.764 358.937,414.264 360.5,416C 359.167,417.333 357.833,418.667 356.5,420C 353.15,419.508 349.817,418.675 346.5,417.5C 338.622,413.978 330.622,413.645 322.5,416.5C 319.084,416.528 316.084,417.528 313.5,419.5C 308.862,421.708 304.195,423.708 299.5,425.5C 290.061,425.895 280.728,425.229 271.5,423.5C 270.5,423.5 269.5,423.5 268.5,423.5C 265.063,422.055 261.397,421.055 257.5,420.5C 254.63,419.366 251.63,418.7 248.5,418.5C 245.727,417.343 242.727,416.676 239.5,416.5C 228.071,415.015 216.738,415.348 205.5,417.5C 201.838,417.723 198.505,418.723 195.5,420.5C 193.708,420.366 192.042,420.699 190.5,421.5C 184.203,422.32 177.869,422.653 171.5,422.5C 158.643,419.103 145.977,415.103 133.5,410.5C 130.797,409.037 127.797,408.204 124.5,408C 120.833,407.833 117.167,407.667 113.5,407.5C 107.267,407.38 101.267,408.047 95.5,409.5C 87.2771,410.677 79.2771,412.344 71.5,414.5C 60.0159,416.232 48.6825,415.565 37.5,412.5C 34.2513,410.972 30.918,409.639 27.5,408.5C 26.0351,407.263 24.3684,406.263 22.5,405.5C 19.1877,402.854 16.1877,399.854 13.5,396.5C 13.8076,395.692 14.3076,395.025 15,394.5C 17.8887,396.518 21.0554,397.851 24.5,398.5 Z M 138.5,424.5 C 140.509,426.065 142.843,427.065 145.5,427.5C 163.202,436.28 181.536,437.613 200.5,431.5C 214,428.423 227.667,427.757 241.5,429.5C 246.835,430.5 252.168,431.5 257.5,432.5C 259.515,433.924 261.848,434.59 264.5,434.5C 265.568,435.434 266.901,435.768 268.5,435.5C 275.219,437.508 282.219,438.508 289.5,438.5C 294.424,438.646 299.091,437.979 303.5,436.5C 305.898,436.741 307.898,436.074 309.5,434.5C 312.622,433.439 315.622,432.105 318.5,430.5C 324.907,428.067 331.574,427.067 338.5,427.5C 340.701,428.566 343.035,429.233 345.5,429.5C 342.5,432.833 339.5,436.167 336.5,439.5C 334.833,440.5 333.5,441.833 332.5,443.5C 330.847,443.66 329.514,444.326 328.5,445.5C 310.268,450.45 291.935,450.784 273.5,446.5C 266.436,443.898 259.103,441.898 251.5,440.5C 238.049,437.663 224.716,437.997 211.5,441.5C 204.009,442.351 196.676,443.351 189.5,444.5C 188.833,444.5 188.167,444.5 187.5,444.5C 175.021,444.986 162.687,443.986 150.5,441.5C 149.5,441.5 148.5,441.5 147.5,441.5C 145.698,440.542 143.698,439.875 141.5,439.5C 138.888,438.629 136.221,437.963 133.5,437.5C 129.795,435.736 125.795,434.569 121.5,434C 105.658,430.991 89.9917,431.491 74.5,435.5C 70.8379,435.723 67.5046,436.723 64.5,438.5C 60.5976,440.355 57.2643,439.689 54.5,436.5C 53.5,434.833 52.1667,433.5 50.5,432.5C 48.8333,431.167 47.1667,429.833 45.5,428.5C 52.3445,428.587 59.3445,428.254 66.5,427.5C 71.422,427.13 76.0886,426.13 80.5,424.5C 91.299,422.339 102.132,420.672 113,419.5C 121.712,419.942 130.212,421.609 138.5,424.5 Z M 116.5,445.5 C 119.273,446.657 122.273,447.324 125.5,447.5C 128.067,448.475 130.733,449.142 133.5,449.5C 135.515,450.924 137.848,451.59 140.5,451.5C 142.515,452.924 144.848,453.59 147.5,453.5C 153.556,455.453 159.889,456.453 166.5,456.5C 172.983,457.676 179.317,457.676 185.5,456.5C 192.721,456.65 199.721,455.983 206.5,454.5C 211.769,454.261 216.769,453.261 221.5,451.5C 228.508,451.334 235.508,451.5 242.5,452C 255.623,454.365 268.623,457.198 281.5,460.5C 291.455,461.962 301.455,462.962 311.5,463.5C 308.167,466.167 305.167,469.167 302.5,472.5C 300.5,473.5 298.5,474.5 296.5,475.5C 292.723,473.278 288.723,471.611 284.5,470.5C 280.784,468.595 276.784,467.261 272.5,466.5C 270.621,465.659 268.621,465.325 266.5,465.5C 253.57,462.043 240.57,461.71 227.5,464.5C 220.941,465.722 214.607,467.388 208.5,469.5C 199.209,470.86 189.876,471.86 180.5,472.5C 172.864,471.726 165.197,470.393 157.5,468.5C 152.392,466.779 147.392,464.779 142.5,462.5C 141.713,460.896 140.38,460.229 138.5,460.5C 130.944,456.488 122.777,454.821 114,455.5C 102.401,455.586 91.0672,457.252 80,460.5C 77.3098,458.973 75.1432,456.973 73.5,454.5C 72.8333,453.167 71.8333,452.167 70.5,451.5C 68.0144,450.538 68.0144,449.705 70.5,449C 74.1708,448.1 77.8375,447.266 81.5,446.5C 93.1086,444.349 104.775,444.015 116.5,445.5 Z M 152.5,479.5 C 135.341,480.497 118.008,480.83 100.5,480.5C 97.5256,477.862 94.5256,475.195 91.5,472.5C 91.7822,471.222 92.4489,470.222 93.5,469.5C 104.814,467.312 116.147,467.145 127.5,469C 135.625,473.064 143.958,476.564 152.5,479.5 Z M 259.5,476.5 C 262.482,476.963 265.482,477.296 268.5,477.5C 270.214,478.738 272.214,479.405 274.5,479.5C 255.671,480.662 236.671,480.829 217.5,480C 218.416,479.722 219.082,479.222 219.5,478.5C 222.267,478.142 224.933,477.475 227.5,476.5C 238.174,475.227 248.841,475.227 259.5,476.5 Z"/></g>
<g><path style="opacity:1" fill="#a3a4a5" d="M 379.5,12.5 C 379.5,12.8333 379.5,13.1667 379.5,13.5C 257.43,13.1687 135.43,13.502 13.5,14.5C 135.162,12.5018 257.162,11.8352 379.5,12.5 Z"/></g>
<g><path style="opacity:1" fill="#6a6c6c" d="M 379.5,13.5 C 380.833,130.5 380.833,247.5 379.5,364.5C 378.167,364.5 377.5,363.833 377.5,362.5C 378.117,362.611 378.617,362.944 379,363.5C 379.5,246.834 379.667,130.167 379.5,13.5 Z"/></g>
<g><path style="opacity:1" fill="#c5c7c8" d="M 379.5,13.5 C 379.5,13.1667 379.5,12.8333 379.5,12.5C 380.833,70.9962 381.5,129.83 381.5,189C 381.167,247.833 380.833,306.667 380.5,365.5C 379.893,365.376 379.56,365.043 379.5,364.5C 380.833,247.5 380.833,130.5 379.5,13.5 Z"/></g>
<g><path style="opacity:1" fill="#e0e2e3" d="M 182.5,38.5 C 192.771,46.5709 202.604,55.2375 212,64.5C 214.358,67.2223 216.191,70.2223 217.5,73.5C 217.427,75.0269 218.094,76.0269 219.5,76.5C 221.403,79.5299 222.737,82.8632 223.5,86.5C 223.723,90.1621 224.723,93.4954 226.5,96.5C 226.587,101.537 226.254,106.537 225.5,111.5C 220.784,122.04 212.784,128.874 201.5,132C 194.668,134.322 187.668,134.988 180.5,134C 178.845,132.556 178.178,130.722 178.5,128.5C 179.832,118.355 180.499,107.855 180.5,97C 180.037,77.1631 179.87,57.3298 180,37.5C 180.671,38.2524 181.504,38.5858 182.5,38.5 Z"/></g>
<g><path style="opacity:1" fill="#838485" d="M 217.5,73.5 C 218.906,73.9731 219.573,74.9731 219.5,76.5C 218.094,76.0269 217.427,75.0269 217.5,73.5 Z"/></g>
<g><path style="opacity:1" fill="#939495" d="M 182.5,38.5 C 181.504,38.5858 180.671,38.2524 180,37.5C 179.87,57.3298 180.037,77.1631 180.5,97C 180.499,107.855 179.832,118.355 178.5,128.5C 178.484,97.5591 178.651,66.5591 179,35.5C 180.518,36.1634 181.685,37.1634 182.5,38.5 Z"/></g>
<g><path style="opacity:1" fill="#929494" d="M 223.5,86.5 C 225.277,89.5046 226.277,92.8379 226.5,96.5C 224.723,93.4954 223.723,90.1621 223.5,86.5 Z"/></g>
<g><path style="opacity:1" fill="#747575" d="M 226.5,96.5 C 227.162,98.3035 227.495,100.304 227.5,102.5C 227.657,105.814 226.991,108.814 225.5,111.5C 226.254,106.537 226.587,101.537 226.5,96.5 Z"/></g>
<g><path style="opacity:1" fill="#bbbcbd" d="M 154.5,121.5 C 148.464,121.36 142.464,121.693 136.5,122.5C 142.369,119.068 148.369,118.735 154.5,121.5 Z"/></g>
<g><path style="opacity:1" fill="#e1e3e4" d="M 154.5,121.5 C 159.667,124.159 162,128.492 161.5,134.5C 161.5,191.5 161.5,248.5 161.5,305.5C 158.632,323.032 148.298,332.699 130.5,334.5C 125.823,334.835 121.156,335.335 116.5,336C 115.584,336.278 114.918,336.778 114.5,337.5C 100.167,338.833 85.8333,338.833 71.5,337.5C 64.7363,335.765 57.7363,334.765 50.5,334.5C 48.901,334.768 47.5676,334.434 46.5,333.5C 44.4855,332.076 42.1522,331.41 39.5,331.5C 35.4632,330.935 31.7966,329.601 28.5,327.5C 28.0269,326.094 27.0269,325.427 25.5,325.5C 22.6967,322.796 21.8634,319.463 23,315.5C 24.129,313.859 25.629,312.859 27.5,312.5C 41.614,315.964 55.9473,317.297 70.5,316.5C 74.8533,316.235 79.1866,315.735 83.5,315C 84.4158,314.722 85.0825,314.222 85.5,313.5C 89.6684,311.662 94.0017,309.995 98.5,308.5C 100.027,308.573 101.027,307.906 101.5,306.5C 102.899,305.11 104.566,304.11 106.5,303.5C 108.749,302.92 110.415,301.587 111.5,299.5C 112.5,297.833 113.833,296.5 115.5,295.5C 117.587,294.415 118.92,292.749 119.5,290.5C 120.906,290.027 121.573,289.027 121.5,287.5C 121.932,286.29 122.599,285.29 123.5,284.5C 126.71,282.082 128.376,278.748 128.5,274.5C 130.187,268.408 131.854,262.408 133.5,256.5C 136.361,242.567 136.027,228.567 132.5,214.5C 132.253,213.287 131.586,212.62 130.5,212.5C 128.895,209.622 127.561,206.622 126.5,203.5C 126.171,200.173 124.837,197.507 122.5,195.5C 121.216,192.598 120.216,189.598 119.5,186.5C 119.405,184.214 118.738,182.214 117.5,180.5C 117.946,177.99 117.28,175.99 115.5,174.5C 115.5,173.833 115.5,173.167 115.5,172.5C 115.11,162.078 115.776,151.745 117.5,141.5C 118.906,141.027 119.573,140.027 119.5,138.5C 119.427,136.973 120.094,135.973 121.5,135.5C 124.118,133.548 126.452,131.215 128.5,128.5C 129.585,126.413 131.251,125.08 133.5,124.5C 135.027,124.573 136.027,123.906 136.5,122.5C 142.464,121.693 148.464,121.36 154.5,121.5 Z"/></g>
<g><path style="opacity:1" fill="#838585" d="M 136.5,122.5 C 136.027,123.906 135.027,124.573 133.5,124.5C 133.973,123.094 134.973,122.427 136.5,122.5 Z"/></g>
<g><path style="opacity:1" fill="#a0a1a2" d="M 128.5,128.5 C 126.452,131.215 124.118,133.548 121.5,135.5C 122.833,132.167 125.167,129.833 128.5,128.5 Z"/></g>
<g><path style="opacity:1" fill="#777878" d="M 119.5,138.5 C 119.573,140.027 118.906,141.027 117.5,141.5C 117.427,139.973 118.094,138.973 119.5,138.5 Z"/></g>
<g><path style="opacity:1" fill="#e0e2e3" d="M 281.5,157.5 C 281.427,159.027 282.094,160.027 283.5,160.5C 284.601,161.848 285.601,163.348 286.5,165C 277.558,166.44 268.558,167.273 259.5,167.5C 251.044,167.715 242.877,169.382 235,172.5C 233.97,172.836 233.47,173.503 233.5,174.5C 220.487,179.513 210.154,187.846 202.5,199.5C 200.026,201.898 198.692,204.898 198.5,208.5C 197.703,212.223 196.703,215.89 195.5,219.5C 192.809,224.61 191.475,230.276 191.5,236.5C 190.836,239.146 190.502,241.979 190.5,245C 190.405,250.079 191.072,254.912 192.5,259.5C 194.093,265.946 196.093,272.28 198.5,278.5C 198.427,280.027 199.094,281.027 200.5,281.5C 210.206,295.862 223.206,306.195 239.5,312.5C 239.47,313.497 239.97,314.164 241,314.5C 246.004,316.559 251.171,317.892 256.5,318.5C 266.167,319.833 275.833,319.833 285.5,318.5C 290.541,318.162 294.874,316.495 298.5,313.5C 300.181,311.992 302.181,310.992 304.5,310.5C 306.749,309.92 308.415,308.587 309.5,306.5C 311.862,303.808 314.196,301.141 316.5,298.5C 317.885,277.146 317.551,255.813 315.5,234.5C 304.651,233.523 293.651,233.023 282.5,233C 281.941,233.725 281.608,234.558 281.5,235.5C 281.871,239.156 282.871,242.49 284.5,245.5C 285.324,248.764 285.658,252.098 285.5,255.5C 285.582,262.858 285.248,270.191 284.5,277.5C 284.262,279.404 283.262,280.738 281.5,281.5C 274.233,282.824 266.9,283.49 259.5,283.5C 257.708,283.634 256.042,283.301 254.5,282.5C 252.824,280.166 250.491,279.166 247.5,279.5C 247.027,278.094 246.027,277.427 244.5,277.5C 234.354,272.227 228.354,263.893 226.5,252.5C 226.5,245.5 226.5,238.5 226.5,231.5C 227.924,229.485 228.59,227.152 228.5,224.5C 229.799,219.236 232.132,214.569 235.5,210.5C 237.262,209.738 238.262,208.404 238.5,206.5C 244.054,198.723 251.387,193.39 260.5,190.5C 263.855,190.31 266.855,189.31 269.5,187.5C 269.833,187.5 270.167,187.5 270.5,187.5C 277.833,187.5 285.167,187.5 292.5,187.5C 296.426,188.552 300.426,189.218 304.5,189.5C 308.715,190.238 312.715,191.572 316.5,193.5C 317.035,195.446 318.368,196.446 320.5,196.5C 327.001,201.327 332.001,207.327 335.5,214.5C 335.427,216.027 336.094,217.027 337.5,217.5C 340.008,221.182 342.008,225.182 343.5,229.5C 343.427,231.027 344.094,232.027 345.5,232.5C 348.679,238.874 351.346,245.54 353.5,252.5C 353.77,256.358 355.103,259.691 357.5,262.5C 358.697,266.095 359.697,269.761 360.5,273.5C 361.057,278.165 362.39,282.498 364.5,286.5C 367.26,294.544 369.26,302.877 370.5,311.5C 370.41,314.152 371.076,316.485 372.5,318.5C 372.5,318.833 372.5,319.167 372.5,319.5C 372.518,324.923 373.185,330.256 374.5,335.5C 363.343,334.334 352.343,334.334 341.5,335.5C 338.482,335.335 335.482,335.502 332.5,336C 331.584,336.278 330.918,336.778 330.5,337.5C 329.5,337.5 328.5,337.5 327.5,337.5C 325.143,337.337 322.81,337.503 320.5,338C 318.347,338.099 316.681,338.933 315.5,340.5C 303.629,343.348 291.629,344.014 279.5,342.5C 265.333,341.59 250.999,341.59 236.5,342.5C 231.833,342.5 227.167,342.5 222.5,342.5C 221.167,342.5 219.833,342.5 218.5,342.5C 210.197,341.4 202.53,338.734 195.5,334.5C 195.027,333.094 194.027,332.427 192.5,332.5C 191.206,331.71 190.039,330.71 189,329.5C 183.73,319.959 178.73,310.292 174,300.5C 173.169,268.331 173.336,236.331 174.5,204.5C 175.495,192.011 175.829,179.344 175.5,166.5C 176.791,166.737 177.791,166.404 178.5,165.5C 185.197,164.686 191.863,163.686 198.5,162.5C 201.187,162.664 203.854,162.497 206.5,162C 207.056,161.617 207.389,161.117 207.5,160.5C 214.356,158.366 221.356,156.366 228.5,154.5C 231.716,154.655 234.383,153.655 236.5,151.5C 239.716,151.655 242.383,150.655 244.5,148.5C 251.075,145.213 257.741,141.879 264.5,138.5C 271.98,143.307 277.646,149.641 281.5,157.5 Z"/></g>
<g><path style="opacity:1" fill="#9a9c9d" d="M 244.5,148.5 C 242.383,150.655 239.716,151.655 236.5,151.5C 238.936,150.129 241.603,149.129 244.5,148.5 Z"/></g>
<g><path style="opacity:1" fill="#919293" d="M 236.5,151.5 C 234.383,153.655 231.716,154.655 228.5,154.5C 230.936,153.129 233.603,152.129 236.5,151.5 Z"/></g>
<g><path style="opacity:1" fill="#9fa0a1" d="M 117.5,141.5 C 115.776,151.745 115.11,162.078 115.5,172.5C 112.549,161.951 113.216,151.618 117.5,141.5 Z"/></g>
<g><path style="opacity:1" fill="#848586" d="M 281.5,157.5 C 282.906,157.973 283.573,158.973 283.5,160.5C 282.094,160.027 281.427,159.027 281.5,157.5 Z"/></g>
<g><path style="opacity:1" fill="#9c9e9f" d="M 207.5,160.5 C 207.389,161.117 207.056,161.617 206.5,162C 203.854,162.497 201.187,162.664 198.5,162.5C 201.273,161.343 204.273,160.676 207.5,160.5 Z"/></g>
<g><path style="opacity:1" fill="#969898" d="M 84.5,165.5 C 83.8333,165.5 83.1667,165.5 82.5,165.5C 82.6854,163.804 83.5187,162.471 85,161.5C 85.765,163.066 85.5983,164.399 84.5,165.5 Z"/></g>
<g><path style="opacity:1" fill="#e0e2e3" d="M 82.5,165.5 C 83.1667,165.5 83.8333,165.5 84.5,165.5C 85.2872,172.86 87.2872,179.86 90.5,186.5C 90.427,188.027 91.0937,189.027 92.5,189.5C 94.1921,191.205 95.5254,193.205 96.5,195.5C 96.7376,197.404 97.7376,198.738 99.5,199.5C 101.633,201.091 103.299,203.091 104.5,205.5C 105.08,207.749 106.413,209.415 108.5,210.5C 110.167,211.5 111.5,212.833 112.5,214.5C 112.427,216.027 113.094,217.027 114.5,217.5C 121.486,223.152 124.32,230.485 123,239.5C 122.005,243.145 121.172,246.812 120.5,250.5C 118.759,252.395 117.759,254.728 117.5,257.5C 111.041,264.335 103.041,268.335 93.5,269.5C 83.1567,270.734 72.8234,270.734 62.5,269.5C 53.8982,266.564 47.8982,260.898 44.5,252.5C 43.669,245.869 43.3357,239.202 43.5,232.5C 43.5,232.167 43.5,231.833 43.5,231.5C 45.2766,228.495 46.2766,225.162 46.5,221.5C 52.4778,206.865 60.4778,193.532 70.5,181.5C 72.5869,180.415 73.9202,178.749 74.5,176.5C 76.4354,172.293 79.1021,168.627 82.5,165.5 Z"/></g>
<g><path style="opacity:1" fill="#7b7c7c" d="M 259.5,167.5 C 250.722,169.062 242.056,171.395 233.5,174.5C 233.47,173.503 233.97,172.836 235,172.5C 242.877,169.382 251.044,167.715 259.5,167.5 Z"/></g>
<g><path style="opacity:1" fill="#8b8c8d" d="M 115.5,174.5 C 117.28,175.99 117.946,177.99 117.5,180.5C 116.262,178.786 115.595,176.786 115.5,174.5 Z"/></g>
<g><path style="opacity:1" fill="#878889" d="M 74.5,176.5 C 73.9202,178.749 72.5869,180.415 70.5,181.5C 71.0798,179.251 72.4131,177.585 74.5,176.5 Z"/></g>
<g><path style="opacity:1" fill="#68696a" d="M 117.5,180.5 C 118.738,182.214 119.405,184.214 119.5,186.5C 117.926,184.898 117.259,182.898 117.5,180.5 Z"/></g>
<g><path style="opacity:1" fill="#989a9a" d="M 292.5,186.5 C 292.5,186.833 292.5,187.167 292.5,187.5C 285.167,187.5 277.833,187.5 270.5,187.5C 277.62,185.328 284.953,184.995 292.5,186.5 Z"/></g>
<g><path style="opacity:1" fill="#7d7e7f" d="M 292.5,187.5 C 292.5,187.167 292.5,186.833 292.5,186.5C 296.761,186.898 300.761,187.898 304.5,189.5C 300.426,189.218 296.426,188.552 292.5,187.5 Z"/></g>
<g><path style="opacity:1" fill="#878889" d="M 90.5,186.5 C 91.9063,186.973 92.573,187.973 92.5,189.5C 91.0937,189.027 90.427,188.027 90.5,186.5 Z"/></g>
<g><path style="opacity:1" fill="#8f9091" d="M 269.5,187.5 C 266.855,189.31 263.855,190.31 260.5,190.5C 263.084,188.528 266.084,187.528 269.5,187.5 Z"/></g>
<g><path style="opacity:1" fill="#868888" d="M 316.5,193.5 C 318.23,194.026 319.564,195.026 320.5,196.5C 318.368,196.446 317.035,195.446 316.5,193.5 Z"/></g>
<g><path style="opacity:1" fill="#909292" d="M 122.5,195.5 C 124.837,197.507 126.171,200.173 126.5,203.5C 124.657,201.147 123.323,198.48 122.5,195.5 Z"/></g>
<g><path style="opacity:1" fill="#898a8a" d="M 96.5,195.5 C 98.2624,196.262 99.2624,197.596 99.5,199.5C 97.7376,198.738 96.7376,197.404 96.5,195.5 Z"/></g>
<g><path style="opacity:1" fill="#bfc1c2" d="M 178.5,165.5 C 177.791,166.404 176.791,166.737 175.5,166.5C 175.829,179.344 175.495,192.011 174.5,204.5C 174.5,191.5 174.5,178.5 174.5,165.5C 175.833,165.5 177.167,165.5 178.5,165.5 Z"/></g>
<g><path style="opacity:1" fill="#797a7b" d="M 202.5,199.5 C 201.537,202.744 200.204,205.744 198.5,208.5C 198.692,204.898 200.026,201.898 202.5,199.5 Z"/></g>
<g><path style="opacity:1" fill="#8a8b8c" d="M 104.5,205.5 C 106.587,206.585 107.92,208.251 108.5,210.5C 106.413,209.415 105.08,207.749 104.5,205.5 Z"/></g>
<g><path style="opacity:1" fill="#8a8b8c" d="M 238.5,206.5 C 238.262,208.404 237.262,209.738 235.5,210.5C 235.738,208.596 236.738,207.262 238.5,206.5 Z"/></g>
<g><path style="opacity:1" fill="#878889" d="M 112.5,214.5 C 113.906,214.973 114.573,215.973 114.5,217.5C 113.094,217.027 112.427,216.027 112.5,214.5 Z"/></g>
<g><path style="opacity:1" fill="#808182" d="M 335.5,214.5 C 336.906,214.973 337.573,215.973 337.5,217.5C 336.094,217.027 335.427,216.027 335.5,214.5 Z"/></g>
<g><path style="opacity:1" fill="#8a8b8c" d="M 195.5,219.5 C 193.603,227.874 192.27,236.207 191.5,244.5C 191.5,241.833 191.5,239.167 191.5,236.5C 191.475,230.276 192.809,224.61 195.5,219.5 Z"/></g>
<g><path style="opacity:1" fill="#919293" d="M 130.5,212.5 C 131.586,212.62 132.253,213.287 132.5,214.5C 136.027,228.567 136.361,242.567 133.5,256.5C 135.389,241.617 134.389,226.951 130.5,212.5 Z"/></g>
<g><path style="opacity:1" fill="#868788" d="M 46.5,221.5 C 46.2766,225.162 45.2766,228.495 43.5,231.5C 43.7234,227.838 44.7234,224.505 46.5,221.5 Z"/></g>
<g><path style="opacity:1" fill="#858687" d="M 228.5,224.5 C 228.59,227.152 227.924,229.485 226.5,231.5C 226.41,228.848 227.076,226.515 228.5,224.5 Z"/></g>
<g><path style="opacity:1" fill="#727374" d="M 343.5,229.5 C 344.906,229.973 345.573,230.973 345.5,232.5C 344.094,232.027 343.427,231.027 343.5,229.5 Z"/></g>
<g><path style="opacity:1" fill="#808182" d="M 315.5,234.5 C 305.114,234.809 294.781,234.476 284.5,233.5C 283.692,233.808 283.025,234.308 282.5,235C 283.54,238.4 284.206,241.9 284.5,245.5C 282.871,242.49 281.871,239.156 281.5,235.5C 281.608,234.558 281.941,233.725 282.5,233C 293.651,233.023 304.651,233.523 315.5,234.5 Z"/></g>
<g><path style="opacity:1" fill="#8a8b8c" d="M 226.5,231.5 C 226.5,238.5 226.5,245.5 226.5,252.5C 225.638,249.177 224.972,245.677 224.5,242C 224.972,238.323 225.638,234.823 226.5,231.5 Z"/></g>
<g><path style="opacity:1" fill="#8e8f8f" d="M 43.5,232.5 C 43.3357,239.202 43.669,245.869 44.5,252.5C 42.9524,248.966 42.2857,245.133 42.5,241C 42.5022,237.979 42.8356,235.146 43.5,232.5 Z"/></g>
<g><path style="opacity:1" fill="#a0a1a2" d="M 191.5,236.5 C 191.5,239.167 191.5,241.833 191.5,244.5C 192.053,249.482 192.387,254.482 192.5,259.5C 191.072,254.912 190.405,250.079 190.5,245C 190.502,241.979 190.836,239.146 191.5,236.5 Z"/></g>
<g><path style="opacity:1" fill="#8c8d8e" d="M 120.5,250.5 C 120.241,253.272 119.241,255.605 117.5,257.5C 117.759,254.728 118.759,252.395 120.5,250.5 Z"/></g>
<g><path style="opacity:1" fill="#8a8b8b" d="M 353.5,252.5 C 355.4,255.518 356.733,258.851 357.5,262.5C 355.103,259.691 353.77,256.358 353.5,252.5 Z"/></g>
<g><path style="opacity:1" fill="#b1b2b3" d="M 285.5,255.5 C 286.653,261.653 286.82,267.986 286,274.5C 285.768,275.737 285.268,276.737 284.5,277.5C 285.248,270.191 285.582,262.858 285.5,255.5 Z"/></g>
<g><path style="opacity:1" fill="#797a7a" d="M 62.5,269.5 C 72.8234,270.734 83.1567,270.734 93.5,269.5C 88.2517,271.022 82.7517,271.689 77,271.5C 73.1667,271.333 69.3333,271.167 65.5,271C 64.2625,270.768 63.2625,270.268 62.5,269.5 Z"/></g>
<g><path style="opacity:1" fill="#78797a" d="M 244.5,277.5 C 246.027,277.427 247.027,278.094 247.5,279.5C 245.973,279.573 244.973,278.906 244.5,277.5 Z"/></g>
<g><path style="opacity:1" fill="#8a8c8c" d="M 315.5,234.5 C 317.551,255.813 317.885,277.146 316.5,298.5C 316.245,277.165 315.912,255.832 315.5,234.5 Z"/></g>
<g><path style="opacity:1" fill="#b3b5b5" d="M 128.5,274.5 C 128.376,278.748 126.71,282.082 123.5,284.5C 124.659,280.849 126.326,277.515 128.5,274.5 Z"/></g>
<g><path style="opacity:1" fill="#9a9b9c" d="M 247.5,279.5 C 250.491,279.166 252.824,280.166 254.5,282.5C 251.843,282.065 249.509,281.065 247.5,279.5 Z"/></g>
<g><path style="opacity:1" fill="#737474" d="M 198.5,278.5 C 199.906,278.973 200.573,279.973 200.5,281.5C 199.094,281.027 198.427,280.027 198.5,278.5 Z"/></g>
<g><path style="opacity:1" fill="#88898a" d="M 360.5,273.5 C 362.61,277.502 363.943,281.835 364.5,286.5C 362.39,282.498 361.057,278.165 360.5,273.5 Z"/></g>
<g><path style="opacity:1" fill="#939595" d="M 281.5,281.5 C 278.797,282.963 275.797,283.796 272.5,284C 267.98,284.814 263.646,284.647 259.5,283.5C 266.9,283.49 274.233,282.824 281.5,281.5 Z"/></g>
<g><path style="opacity:1" fill="#8d8e8f" d="M 161.5,134.5 C 162.635,188.666 163.135,243 163,297.5C 162.817,300.365 162.317,303.031 161.5,305.5C 161.5,248.5 161.5,191.5 161.5,134.5 Z"/></g>
<g><path style="opacity:1" fill="#858687" d="M 121.5,287.5 C 121.573,289.027 120.906,290.027 119.5,290.5C 119.427,288.973 120.094,287.973 121.5,287.5 Z"/></g>
<g><path style="opacity:1" fill="#8c8d8d" d="M 119.5,290.5 C 118.92,292.749 117.587,294.415 115.5,295.5C 116.08,293.251 117.413,291.585 119.5,290.5 Z"/></g>
<g><path style="opacity:1" fill="#a0a2a2" d="M 111.5,299.5 C 110.415,301.587 108.749,302.92 106.5,303.5C 107.585,301.413 109.251,300.08 111.5,299.5 Z"/></g>
<g><path style="opacity:1" fill="#858687" d="M 101.5,306.5 C 101.027,307.906 100.027,308.573 98.5,308.5C 98.9731,307.094 99.9731,306.427 101.5,306.5 Z"/></g>
<g><path style="opacity:1" fill="#a1a2a3" d="M 309.5,306.5 C 308.415,308.587 306.749,309.92 304.5,310.5C 305.585,308.413 307.251,307.08 309.5,306.5 Z"/></g>
<g><path style="opacity:1" fill="#858687" d="M 27.5,312.5 C 28.0968,311.861 28.9302,311.528 30,311.5C 43.311,314.759 56.811,316.092 70.5,315.5C 70.5,315.833 70.5,316.167 70.5,316.5C 55.9473,317.297 41.614,315.964 27.5,312.5 Z"/></g>
<g><path style="opacity:1" fill="#808282" d="M 239.5,312.5 C 245.247,314.525 250.914,316.525 256.5,318.5C 251.171,317.892 246.004,316.559 241,314.5C 239.97,314.164 239.47,313.497 239.5,312.5 Z"/></g>
<g><path style="opacity:1" fill="#979899" d="M 85.5,313.5 C 85.0825,314.222 84.4158,314.722 83.5,315C 79.1866,315.735 74.8533,316.235 70.5,316.5C 70.5,316.167 70.5,315.833 70.5,315.5C 75.5157,314.942 80.5157,314.275 85.5,313.5 Z"/></g>
<g><path style="opacity:1" fill="#929394" d="M 298.5,313.5 C 294.874,316.495 290.541,318.162 285.5,318.5C 289.68,316.658 294.013,314.992 298.5,313.5 Z"/></g>
<g><path style="opacity:1" fill="#7b7c7c" d="M 370.5,311.5 C 371.924,313.515 372.59,315.848 372.5,318.5C 371.076,316.485 370.41,314.152 370.5,311.5 Z"/></g>
<g><path style="opacity:1" fill="#7d7e7f" d="M 25.5,325.5 C 27.0269,325.427 28.0269,326.094 28.5,327.5C 26.9731,327.573 25.9731,326.906 25.5,325.5 Z"/></g>
<g><path style="opacity:1" fill="#8d8f8f" d="M 39.5,331.5 C 42.1522,331.41 44.4855,332.076 46.5,333.5C 43.8478,333.59 41.5145,332.924 39.5,331.5 Z"/></g>
<g><path style="opacity:1" fill="#78797a" d="M 192.5,332.5 C 194.027,332.427 195.027,333.094 195.5,334.5C 193.973,334.573 192.973,333.906 192.5,332.5 Z"/></g>
<g><path style="opacity:1" fill="#8d8f8f" d="M 50.5,334.5 C 57.7363,334.765 64.7363,335.765 71.5,337.5C 64.2508,337.322 57.2508,336.322 50.5,334.5 Z"/></g>
<g><path style="opacity:1" fill="#7a7b7c" d="M 130.5,334.5 C 125.394,336.044 120.061,337.044 114.5,337.5C 114.918,336.778 115.584,336.278 116.5,336C 121.156,335.335 125.823,334.835 130.5,334.5 Z"/></g>
<g><path style="opacity:1" fill="#6f7070" d="M 341.5,335.5 C 338.003,336.402 334.337,337.069 330.5,337.5C 330.918,336.778 331.584,336.278 332.5,336C 335.482,335.502 338.482,335.335 341.5,335.5 Z"/></g>
<g><path style="opacity:1" fill="#898b8b" d="M 372.5,319.5 C 374.842,325.24 375.509,331.24 374.5,337.5C 363.59,335.793 352.59,335.127 341.5,335.5C 352.343,334.334 363.343,334.334 374.5,335.5C 373.185,330.256 372.518,324.923 372.5,319.5 Z"/></g>
<g><path style="opacity:1" fill="#a9abab" d="M 327.5,337.5 C 323.687,338.787 319.687,339.787 315.5,340.5C 316.681,338.933 318.347,338.099 320.5,338C 322.81,337.503 325.143,337.337 327.5,337.5 Z"/></g>
<g><path style="opacity:1" fill="#a8a9aa" d="M 110.5,339.5 C 110.389,340.117 110.056,340.617 109.5,341C 103.753,341.862 98.0866,343.029 92.5,344.5C 98.0696,341.649 104.07,339.982 110.5,339.5 Z"/></g>
<g><path style="opacity:1" fill="#9fa0a1" d="M 124.5,339.5 C 131.269,339.319 137.602,340.653 143.5,343.5C 136.996,342.401 130.663,341.067 124.5,339.5 Z"/></g>
<g><path style="opacity:1" fill="#b5b7b7" d="M 222.5,342.5 C 227.167,342.5 231.833,342.5 236.5,342.5C 236.833,343.167 237.167,343.833 237.5,344.5C 231.5,344.5 225.5,344.5 219.5,344.5C 220.5,343.833 221.5,343.167 222.5,342.5 Z"/></g>
<g><path style="opacity:1" fill="#767777" d="M 279.5,342.5 C 266.815,342.486 254.148,342.986 241.5,344C 242.737,344.232 243.737,344.732 244.5,345.5C 242.097,345.552 239.764,345.219 237.5,344.5C 237.167,343.833 236.833,343.167 236.5,342.5C 250.999,341.59 265.333,341.59 279.5,342.5 Z"/></g>
<g><path style="opacity:1" fill="#878889" d="M 218.5,342.5 C 219.833,342.5 221.167,342.5 222.5,342.5C 221.5,343.167 220.5,343.833 219.5,344.5C 215.462,344.958 211.462,345.624 207.5,346.5C 211.041,344.765 214.707,343.431 218.5,342.5 Z"/></g>
<g><path style="opacity:1" fill="#7a7b7c" d="M 30.5,343.5 C 32.5529,343.402 34.2196,344.069 35.5,345.5C 33.4471,345.598 31.7804,344.931 30.5,343.5 Z"/></g>
<g><path style="opacity:1" fill="#8a8b8c" d="M 92.5,344.5 C 92.0269,345.906 91.0269,346.573 89.5,346.5C 89.9731,345.094 90.9731,344.427 92.5,344.5 Z"/></g>
<g><path style="opacity:1" fill="#8f9091" d="M 154.5,348.5 C 164.545,351.745 174.878,353.412 185.5,353.5C 176.161,354.791 166.827,353.957 157.5,351C 155.881,350.764 154.881,349.931 154.5,348.5 Z"/></g>
<g><path style="opacity:1" fill="#9c9e9f" d="M 346.5,348.5 C 351.177,349.08 355.51,350.413 359.5,352.5C 354.824,351.939 350.491,350.606 346.5,348.5 Z"/></g>
<g><path style="opacity:1" fill="#6a6b6c" d="M 132.5,352.5 C 123.829,351.205 115.162,351.205 106.5,352.5C 107.263,351.732 108.263,351.232 109.5,351C 112.667,350.833 115.833,350.667 119,350.5C 123.772,350.308 128.272,350.975 132.5,352.5 Z"/></g>
<g><path style="opacity:1" fill="#8e8f8f" d="M 195.5,351.5 C 195.082,352.222 194.416,352.722 193.5,353C 190.854,353.497 188.187,353.664 185.5,353.5C 188.627,352.419 191.96,351.753 195.5,351.5 Z"/></g>
<g><path style="opacity:1" fill="#8b8c8c" d="M 136.5,353.5 C 138.698,353.12 140.365,353.787 141.5,355.5C 139.597,355.204 137.93,354.537 136.5,353.5 Z"/></g>
<g><path style="opacity:1" fill="#7d7e7f" d="M 105.5,352.5 C 102.322,354.009 98.9889,355.342 95.5,356.5C 98.1918,353.819 101.525,352.486 105.5,352.5 Z"/></g>
<g><path style="opacity:1" fill="#9a9b9c" d="M 234.5,355.5 C 228.122,355.295 221.789,355.628 215.5,356.5C 215.918,355.778 216.584,355.278 217.5,355C 223.349,354.182 229.015,354.348 234.5,355.5 Z"/></g>
<g><path style="opacity:1" fill="#767777" d="M 85.5,359.5 C 72.886,362.719 60.2193,363.052 47.5,360.5C 60.1868,360.682 72.8534,360.349 85.5,359.5 Z"/></g>
<g><path style="opacity:1" fill="#858787" d="M 134.5,363.5 C 127.879,362.243 121.212,361.243 114.5,360.5C 109.841,360.999 105.174,361.333 100.5,361.5C 112.035,358.467 123.369,359.133 134.5,363.5 Z"/></g>
<g><path style="opacity:1" fill="#949596" d="M 274.5,358.5 C 284.133,362.425 293.8,362.425 303.5,358.5C 302.942,359.79 301.942,360.623 300.5,361C 292.828,362.934 285.161,362.934 277.5,361C 275.881,360.764 274.881,359.931 274.5,358.5 Z"/></g>
<g><path style="opacity:1" fill="#646666" d="M 326.5,360.5 C 324.786,361.738 322.786,362.405 320.5,362.5C 322.102,360.926 324.102,360.259 326.5,360.5 Z"/></g>
<g><path style="opacity:1" fill="#898a8a" d="M 349.5,361.5 C 353.708,361.677 357.374,363.01 360.5,365.5C 356.605,364.538 352.939,363.204 349.5,361.5 Z"/></g>
<g><path style="opacity:1" fill="#7d7e7f" d="M 155.5,361.5 C 158.152,361.41 160.485,362.076 162.5,363.5C 159.848,363.59 157.515,362.924 155.5,361.5 Z"/></g>
<g><path style="opacity:1" fill="#696a6b" d="M 202.5,361.5 C 201.07,362.537 199.403,363.204 197.5,363.5C 198.635,361.787 200.302,361.12 202.5,361.5 Z"/></g>
<g><path style="opacity:1" fill="#9c9d9e" d="M 100.5,361.5 C 96.4979,363.61 92.1646,364.943 87.5,365.5C 91.5021,363.39 95.8354,362.057 100.5,361.5 Z"/></g>
<g><path style="opacity:1" fill="#a7a9a9" d="M 163.5,363.5 C 174.502,364.797 185.502,364.797 196.5,363.5C 191.252,365.022 185.752,365.689 180,365.5C 174.248,365.689 168.748,365.022 163.5,363.5 Z"/></g>
<g><path style="opacity:1" fill="#9d9e9f" d="M 33.5,367.5 C 37.0477,368.13 40.3811,369.13 43.5,370.5C 40.9621,370.493 38.4621,370.159 36,369.5C 34.6244,369.316 33.7911,368.649 33.5,367.5 Z"/></g>
<g><path style="opacity:1" fill="#8a8b8b" d="M 234.5,367.5 C 240.493,368.411 246.16,370.077 251.5,372.5C 245.502,371.588 239.835,369.922 234.5,367.5 Z"/></g>
<g><path style="opacity:1" fill="#9e9fa0" d="M 77.5,368.5 C 77.3893,369.117 77.056,369.617 76.5,370C 73.854,370.497 71.1873,370.664 68.5,370.5C 71.2727,369.343 74.2727,368.676 77.5,368.5 Z"/></g>
<g><path style="opacity:1" fill="#787979" d="M 365.5,368.5 C 367.027,368.427 368.027,369.094 368.5,370.5C 366.973,370.573 365.973,369.906 365.5,368.5 Z"/></g>
<g><path style="opacity:1" fill="#a6a8a8" d="M 212.5,367.5 C 207.669,369.402 202.669,371.069 197.5,372.5C 201.948,369.464 206.948,367.798 212.5,367.5 Z"/></g>
<g><path style="opacity:1" fill="#8d8e8f" d="M 269.5,369.5 C 272.855,369.69 275.855,370.69 278.5,372.5C 275.084,372.472 272.084,371.472 269.5,369.5 Z"/></g>
<g><path style="opacity:1" fill="#8e9090" d="M 322.5,370.5 C 329.655,369.345 336.988,369.178 344.5,370C 348.529,370.416 352.196,371.583 355.5,373.5C 344.665,370.941 333.665,369.941 322.5,370.5 Z"/></g>
<g><path style="opacity:1" fill="#898a8b" d="M 368.5,370.5 C 370.749,371.08 372.415,372.413 373.5,374.5C 371.251,373.92 369.585,372.587 368.5,370.5 Z"/></g>
<g><path style="opacity:1" fill="#8b8c8d" d="M 43.5,370.5 C 51.5,371.833 59.5,371.833 67.5,370.5C 59.4845,373.074 51.4845,373.074 43.5,370.5 Z"/></g>
<g><path style="opacity:1" fill="#7c7d7d" d="M 122.5,372.5 C 114.383,372.114 106.383,372.781 98.5,374.5C 99.6808,372.933 101.347,372.099 103.5,372C 110.014,371.18 116.347,371.347 122.5,372.5 Z"/></g>
<g><path style="opacity:1" fill="#909292" d="M 305.5,370.5 C 300.148,372.7 294.481,374.034 288.5,374.5C 285.029,373.903 281.695,373.236 278.5,372.5C 287.601,372.881 296.601,372.214 305.5,370.5 Z"/></g>
<g><path style="opacity:1" fill="#9c9d9e" d="M 321.5,370.5 C 317.915,372.806 313.915,374.139 309.5,374.5C 313.085,372.194 317.085,370.861 321.5,370.5 Z"/></g>
<g><path style="opacity:1" fill="#98999a" d="M 361.5,375.5 C 364.317,376.095 366.65,377.428 368.5,379.5C 365.594,378.892 363.26,377.559 361.5,375.5 Z"/></g>
<g><path style="opacity:1" fill="#adafb0" d="M 162.5,375.5 C 168.726,377.006 175.059,377.672 181.5,377.5C 176.684,378.65 171.684,378.816 166.5,378C 164.563,377.878 163.23,377.045 162.5,375.5 Z"/></g>
<g><path style="opacity:1" fill="#959697" d="M 263.5,376.5 C 267.804,377.628 272.138,378.628 276.5,379.5C 276.5,379.833 276.5,380.167 276.5,380.5C 272.797,380.093 269.13,379.426 265.5,378.5C 264.287,378.253 263.62,377.586 263.5,376.5 Z"/></g>
<g><path style="opacity:1" fill="#8e8f90" d="M 29.5,378.5 C 33.1621,378.723 36.4954,379.723 39.5,381.5C 35.8379,381.277 32.5046,380.277 29.5,378.5 Z"/></g>
<g><path style="opacity:1" fill="#757677" d="M 86.5,378.5 C 81.4377,380.451 76.1044,381.785 70.5,382.5C 75.4865,380.297 80.8198,378.963 86.5,378.5 Z"/></g>
<g><path style="opacity:1" fill="#7d7e7e" d="M 298.5,378.5 C 297.737,379.268 296.737,379.768 295.5,380C 289.175,380.5 282.842,380.666 276.5,380.5C 276.5,380.167 276.5,379.833 276.5,379.5C 283.868,379.683 291.201,379.35 298.5,378.5 Z"/></g>
<g><path style="opacity:1" fill="#88898a" d="M 141.5,379.5 C 143.027,379.427 144.027,380.094 144.5,381.5C 142.973,381.573 141.973,380.906 141.5,379.5 Z"/></g>
<g><path style="opacity:1" fill="#848686" d="M 237.5,380.5 C 240.152,380.41 242.485,381.076 244.5,382.5C 241.848,382.59 239.515,381.924 237.5,380.5 Z"/></g>
<g><path style="opacity:1" fill="#8d8e8f" d="M 348.5,383.5 C 339.149,380.904 329.816,380.904 320.5,383.5C 320.791,382.351 321.624,381.684 323,381.5C 330.852,380.215 338.685,380.382 346.5,382C 347.416,382.278 348.082,382.778 348.5,383.5 Z"/></g>
<g><path style="opacity:1" fill="#7f8081" d="M 212.5,379.5 C 208.32,381.342 203.987,383.008 199.5,384.5C 203.203,381.483 207.536,379.816 212.5,379.5 Z"/></g>
<g><path style="opacity:1" fill="#999a9b" d="M 39.5,381.5 C 48.815,382.232 58.1483,382.566 67.5,382.5C 63.8485,383.165 60.0152,383.499 56,383.5C 50.2483,383.689 44.7483,383.022 39.5,381.5 Z"/></g>
<g><path style="opacity:1" fill="#858687" d="M 144.5,381.5 C 146.027,381.427 147.027,382.094 147.5,383.5C 145.973,383.573 144.973,382.906 144.5,381.5 Z"/></g>
<g><path style="opacity:1" fill="#8f9091" d="M 255.5,386.5 C 260.165,387.057 264.498,388.39 268.5,390.5C 263.835,389.943 259.502,388.61 255.5,386.5 Z"/></g>
<g><path style="opacity:1" fill="#8e9090" d="M 378.5,381.5 C 380.308,382.918 380.975,384.918 380.5,387.5C 378.821,387.715 377.821,387.048 377.5,385.5C 378.117,385.611 378.617,385.944 379,386.5C 379.64,384.735 379.473,383.068 378.5,381.5 Z"/></g>
<g><path style="opacity:1" fill="#828384" d="M 157.5,386.5 C 160.152,386.41 162.485,387.076 164.5,388.5C 161.848,388.59 159.515,387.924 157.5,386.5 Z"/></g>
<g><path style="opacity:1" fill="#777879" d="M 30.5,387.5 C 37.5233,389.567 44.5233,391.234 51.5,392.5C 45.0321,392.407 38.6988,391.407 32.5,389.5C 31.2867,389.253 30.62,388.586 30.5,387.5 Z"/></g>
<g><path style="opacity:1" fill="#8b8c8d" d="M 93.5,387.5 C 91.4855,388.924 89.1522,389.59 86.5,389.5C 88.5145,388.076 90.8478,387.41 93.5,387.5 Z"/></g>
<g><path style="opacity:1" fill="#7d7d7e" d="M 164.5,388.5 C 171.833,388.5 179.167,388.5 186.5,388.5C 179.176,391.037 171.842,391.037 164.5,388.5 Z"/></g>
<g><path style="opacity:1" fill="#7b7c7d" d="M 359.5,387.5 C 361.027,387.427 362.027,388.094 362.5,389.5C 360.973,389.573 359.973,388.906 359.5,387.5 Z"/></g>
<g><path style="opacity:1" fill="#656667" d="M 306.5,388.5 C 304.485,389.924 302.152,390.59 299.5,390.5C 301.515,389.076 303.848,388.41 306.5,388.5 Z"/></g>
<g><path style="opacity:1" fill="#7f8080" d="M 86.5,389.5 C 82.1004,391.104 77.4338,391.771 72.5,391.5C 76.9637,390.356 81.6304,389.69 86.5,389.5 Z"/></g>
<g><path style="opacity:1" fill="#8f9090" d="M 213.5,390.5 C 211.485,391.924 209.152,392.59 206.5,392.5C 208.515,391.076 210.848,390.41 213.5,390.5 Z"/></g>
<g><path style="opacity:1" fill="#8c8d8d" d="M 269.5,390.5 C 279.5,391.833 289.5,391.833 299.5,390.5C 289.5,393.167 279.5,393.167 269.5,390.5 Z"/></g>
<g><path style="opacity:1" fill="#949596" d="M 345.5,394.5 C 350.29,395.204 354.624,396.871 358.5,399.5C 353.757,398.373 349.423,396.706 345.5,394.5 Z"/></g>
<g><path style="opacity:1" fill="#686869" d="M 104.5,396.5 C 102.786,397.738 100.786,398.405 98.5,398.5C 100.102,396.926 102.102,396.259 104.5,396.5 Z"/></g>
<g><path style="opacity:1" fill="#88898a" d="M 153.5,395.5 C 165.738,399.071 178.071,399.404 190.5,396.5C 190.082,397.222 189.416,397.722 188.5,398C 178.49,399.927 168.49,399.927 158.5,398C 156.509,397.626 154.842,396.793 153.5,395.5 Z"/></g>
<g><path style="opacity:1" fill="#9fa0a1" d="M 248.5,393.5 C 254.141,394.932 259.475,396.932 264.5,399.5C 258.61,398.433 253.276,396.433 248.5,393.5 Z"/></g>
<g><path style="opacity:1" fill="#6e6f6f" d="M 371.5,396.5 C 373.833,396.833 375.167,398.167 375.5,400.5C 373.833,399.5 372.5,398.167 371.5,396.5 Z"/></g>
<g><path style="opacity:1" fill="#848586" d="M 24.5,398.5 C 28.1621,398.723 31.4954,399.723 34.5,401.5C 30.8379,401.277 27.5046,400.277 24.5,398.5 Z"/></g>
<g><path style="opacity:1" fill="#8b8d8e" d="M 316.5,397.5 C 314.485,398.924 312.152,399.59 309.5,399.5C 311.515,398.076 313.848,397.41 316.5,397.5 Z"/></g>
<g><path style="opacity:1" fill="#939595" d="M 97.5,398.5 C 89.9239,401.623 81.9239,403.29 73.5,403.5C 81.2919,401.419 89.2919,399.752 97.5,398.5 Z"/></g>
<g><path style="opacity:1" fill="#78797a" d="M 22.5,405.5 C 24.3684,406.263 26.0351,407.263 27.5,408.5C 24.9664,408.741 23.2998,407.741 22.5,405.5 Z"/></g>
<g><path style="opacity:1" fill="#848585" d="M 149.5,406.5 C 153.162,406.723 156.495,407.723 159.5,409.5C 155.838,409.277 152.505,408.277 149.5,406.5 Z"/></g>
<g><path style="opacity:1" fill="#868687" d="M 343.5,406.5 C 346.01,406.054 348.01,406.72 349.5,408.5C 347.302,408.125 345.302,407.458 343.5,406.5 Z"/></g>
<g><path style="opacity:1" fill="#7a7b7b" d="M 133.5,410.5 C 120.896,408.237 108.229,407.903 95.5,409.5C 101.267,408.047 107.267,407.38 113.5,407.5C 117.167,407.667 120.833,407.833 124.5,408C 127.797,408.204 130.797,409.037 133.5,410.5 Z"/></g>
<g><path style="opacity:1" fill="#5e5f60" d="M 198.5,406.5 C 196.485,407.924 194.152,408.59 191.5,408.5C 193.515,407.076 195.848,406.41 198.5,406.5 Z"/></g>
<g><path style="opacity:1" fill="#898a8b" d="M 252.5,407.5 C 254.698,407.12 256.365,407.787 257.5,409.5C 255.597,409.204 253.93,408.537 252.5,407.5 Z"/></g>
<g><path style="opacity:1" fill="#6b6c6c" d="M 341.5,406.5 C 333.619,406.028 325.953,407.028 318.5,409.5C 318.611,408.883 318.944,408.383 319.5,408C 326.861,405.545 334.194,405.045 341.5,406.5 Z"/></g>
<g><path style="opacity:1" fill="#979899" d="M 349.5,408.5 C 352.313,408.025 354.313,409.025 355.5,411.5C 353.456,410.492 351.456,409.492 349.5,408.5 Z"/></g>
<g><path style="opacity:1" fill="#a0a2a2" d="M 313.5,410.5 C 311.401,411.612 309.067,412.279 306.5,412.5C 308.279,410.656 310.612,409.99 313.5,410.5 Z"/></g>
<g><path style="opacity:1" fill="#9fa0a1" d="M 37.5,412.5 C 48.6825,415.565 60.0159,416.232 71.5,414.5C 61.1534,417.095 50.6534,417.095 40,414.5C 38.6244,414.316 37.7911,413.649 37.5,412.5 Z"/></g>
<g><path style="opacity:1" fill="#959797" d="M 346.5,417.5 C 338.534,416.635 330.534,416.302 322.5,416.5C 330.622,413.645 338.622,413.978 346.5,417.5 Z"/></g>
<g><path style="opacity:1" fill="#828383" d="M 13.5,417.5 C 15.7488,418.08 17.4154,419.413 18.5,421.5C 16.2512,420.92 14.5846,419.587 13.5,417.5 Z"/></g>
<g><path style="opacity:1" fill="#6d6e6e" d="M 239.5,416.5 C 242.727,416.676 245.727,417.343 248.5,418.5C 245.171,418.785 242.171,418.118 239.5,416.5 Z"/></g>
<g><path style="opacity:1" fill="#959697" d="M 322.5,416.5 C 319.855,418.31 316.855,419.31 313.5,419.5C 316.084,417.528 319.084,416.528 322.5,416.5 Z"/></g>
<g><path style="opacity:1" fill="#919293" d="M 205.5,417.5 C 202.495,419.277 199.162,420.277 195.5,420.5C 198.505,418.723 201.838,417.723 205.5,417.5 Z"/></g>
<g><path style="opacity:1" fill="#aaacad" d="M 257.5,420.5 C 261.397,421.055 265.063,422.055 268.5,423.5C 265.09,423.543 261.757,423.043 258.5,422C 257.944,421.617 257.611,421.117 257.5,420.5 Z"/></g>
<g><path style="opacity:1" fill="#b2b3b4" d="M 190.5,421.5 C 187.742,422.818 184.576,423.485 181,423.5C 177.648,423.498 174.482,423.165 171.5,422.5C 177.869,422.653 184.203,422.32 190.5,421.5 Z"/></g>
<g><path style="opacity:1" fill="#929393" d="M 138.5,424.5 C 141.491,424.166 143.824,425.166 145.5,427.5C 142.843,427.065 140.509,426.065 138.5,424.5 Z"/></g>
<g><path style="opacity:1" fill="#7a7b7c" d="M 271.5,423.5 C 280.728,425.229 290.061,425.895 299.5,425.5C 292.011,426.656 284.345,426.822 276.5,426C 274.256,425.95 272.589,425.117 271.5,423.5 Z"/></g>
<g><path style="opacity:1" fill="#666667" d="M 80.5,424.5 C 76.0886,426.13 71.422,427.13 66.5,427.5C 66.5,427.167 66.5,426.833 66.5,426.5C 71.0923,425.402 75.759,424.735 80.5,424.5 Z"/></g>
<g><path style="opacity:1" fill="#8c8e8e" d="M 66.5,426.5 C 66.5,426.833 66.5,427.167 66.5,427.5C 59.3445,428.254 52.3445,428.587 45.5,428.5C 44.9569,428.44 44.6236,428.107 44.5,427.5C 51.8032,426.503 59.1365,426.169 66.5,426.5 Z"/></g>
<g><path style="opacity:1" fill="#8d8e8f" d="M 241.5,429.5 C 227.667,427.757 214,428.423 200.5,431.5C 200.47,430.503 200.97,429.836 202,429.5C 214.088,427.538 226.254,427.038 238.5,428C 239.737,428.232 240.737,428.732 241.5,429.5 Z"/></g>
<g><path style="opacity:1" fill="#8f9091" d="M 338.5,427.5 C 331.574,427.067 324.907,428.067 318.5,430.5C 318.47,429.503 318.97,428.836 320,428.5C 326.227,426.44 332.393,426.107 338.5,427.5 Z"/></g>
<g><path style="opacity:1" fill="#777878" d="M 50.5,432.5 C 52.1667,433.5 53.5,434.833 54.5,436.5C 52.1667,436.167 50.8333,434.833 50.5,432.5 Z"/></g>
<g><path style="opacity:1" fill="#979899" d="M 133.5,437.5 C 113.965,433.052 94.298,432.385 74.5,435.5C 89.9917,431.491 105.658,430.991 121.5,434C 125.795,434.569 129.795,435.736 133.5,437.5 Z"/></g>
<g><path style="opacity:1" fill="#838585" d="M 257.5,432.5 C 260.152,432.41 262.485,433.076 264.5,434.5C 261.848,434.59 259.515,433.924 257.5,432.5 Z"/></g>
<g><path style="opacity:1" fill="#919293" d="M 345.5,429.5 C 346.525,429.897 346.692,430.563 346,431.5C 343.234,434.777 340.067,437.443 336.5,439.5C 339.5,436.167 342.5,432.833 345.5,429.5 Z"/></g>
<g><path style="opacity:1" fill="#7b7c7d" d="M 309.5,434.5 C 307.898,436.074 305.898,436.741 303.5,436.5C 305.214,435.262 307.214,434.595 309.5,434.5 Z"/></g>
<g><path style="opacity:1" fill="#969798" d="M 74.5,435.5 C 71.4954,437.277 68.1621,438.277 64.5,438.5C 67.5046,436.723 70.8379,435.723 74.5,435.5 Z"/></g>
<g><path style="opacity:1" fill="#909192" d="M 268.5,435.5 C 275.335,436.1 282.168,436.767 289,437.5C 293.841,437.188 298.674,436.855 303.5,436.5C 299.091,437.979 294.424,438.646 289.5,438.5C 282.219,438.508 275.219,437.508 268.5,435.5 Z"/></g>
<g><path style="opacity:1" fill="#a3a4a4" d="M 141.5,439.5 C 143.698,439.875 145.698,440.542 147.5,441.5C 144.918,441.975 142.918,441.308 141.5,439.5 Z"/></g>
<g><path style="opacity:1" fill="#88898a" d="M 251.5,440.5 C 259.103,441.898 266.436,443.898 273.5,446.5C 266.481,445.162 259.481,443.662 252.5,442C 251.944,441.617 251.611,441.117 251.5,440.5 Z"/></g>
<g><path style="opacity:1" fill="#747676" d="M 39.5,442.5 C 41.7488,443.08 43.4154,444.413 44.5,446.5C 42.2512,445.92 40.5846,444.587 39.5,442.5 Z"/></g>
<g><path style="opacity:1" fill="#858686" d="M 150.5,441.5 C 162.687,443.986 175.021,444.986 187.5,444.5C 176.104,445.919 164.604,445.586 153,443.5C 151.624,443.316 150.791,442.649 150.5,441.5 Z"/></g>
<g><path style="opacity:1" fill="#909192" d="M 211.5,441.5 C 211.082,442.222 210.416,442.722 209.5,443C 202.872,444.052 196.206,444.552 189.5,444.5C 196.676,443.351 204.009,442.351 211.5,441.5 Z"/></g>
<g><path style="opacity:1" fill="#838485" d="M 116.5,445.5 C 104.775,444.015 93.1086,444.349 81.5,446.5C 81.6107,445.883 81.944,445.383 82.5,445C 94.0218,442.848 105.355,443.015 116.5,445.5 Z"/></g>
<g><path style="opacity:1" fill="#696a6a" d="M 332.5,443.5 C 331.713,445.104 330.38,445.771 328.5,445.5C 329.514,444.326 330.847,443.66 332.5,443.5 Z"/></g>
<g><path style="opacity:1" fill="#a1a2a3" d="M 116.5,445.5 C 119.187,445.336 121.854,445.503 124.5,446C 125.056,446.383 125.389,446.883 125.5,447.5C 122.273,447.324 119.273,446.657 116.5,445.5 Z"/></g>
<g><path style="opacity:1" fill="#9c9e9e" d="M 133.5,449.5 C 136.152,449.41 138.485,450.076 140.5,451.5C 137.848,451.59 135.515,450.924 133.5,449.5 Z"/></g>
<g><path style="opacity:1" fill="#6c6d6e" d="M 70.5,451.5 C 71.8333,452.167 72.8333,453.167 73.5,454.5C 71.5,454.5 70.5,453.5 70.5,451.5 Z"/></g>
<g><path style="opacity:1" fill="#838485" d="M 140.5,451.5 C 143.152,451.41 145.485,452.076 147.5,453.5C 144.848,453.59 142.515,452.924 140.5,451.5 Z"/></g>
<g><path style="opacity:1" fill="#959697" d="M 147.5,453.5 C 154.098,453.625 160.431,454.625 166.5,456.5C 159.889,456.453 153.556,455.453 147.5,453.5 Z"/></g>
<g><path style="opacity:1" fill="#797a7b" d="M 221.5,451.5 C 216.769,453.261 211.769,454.261 206.5,454.5C 211.231,452.739 216.231,451.739 221.5,451.5 Z"/></g>
<g><path style="opacity:1" fill="#9fa0a1" d="M 206.5,454.5 C 199.721,455.983 192.721,456.65 185.5,456.5C 192.262,454.847 199.262,454.18 206.5,454.5 Z"/></g>
<g><path style="opacity:1" fill="#808181" d="M 58.5,460.5 C 61.0892,461.419 63.0892,463.086 64.5,465.5C 61.9108,464.581 59.9108,462.914 58.5,460.5 Z"/></g>
<g><path style="opacity:1" fill="#858787" d="M 138.5,460.5 C 140.38,460.229 141.713,460.896 142.5,462.5C 140.847,462.34 139.514,461.674 138.5,460.5 Z"/></g>
<g><path style="opacity:1" fill="#696a6b" d="M 281.5,460.5 C 291.844,460.935 302.177,461.602 312.5,462.5C 312.376,463.107 312.043,463.44 311.5,463.5C 301.455,462.962 291.455,461.962 281.5,460.5 Z"/></g>
<g><path style="opacity:1" fill="#848585" d="M 266.5,465.5 C 253.522,464.622 240.522,464.289 227.5,464.5C 240.57,461.71 253.57,462.043 266.5,465.5 Z"/></g>
<g><path style="opacity:1" fill="#abacad" d="M 272.5,466.5 C 276.784,467.261 280.784,468.595 284.5,470.5C 279.974,470.103 275.974,468.77 272.5,466.5 Z"/></g>
<g><path style="opacity:1" fill="#646565" d="M 93.5,469.5 C 92.4489,470.222 91.7822,471.222 91.5,472.5C 90.596,471.791 90.2627,470.791 90.5,469.5C 91.5,469.5 92.5,469.5 93.5,469.5 Z"/></g>
<g><path style="opacity:1" fill="#7f8081" d="M 157.5,468.5 C 165.197,470.393 172.864,471.726 180.5,472.5C 178.833,472.5 177.167,472.5 175.5,472.5C 171.103,472.575 166.77,472.075 162.5,471C 160.347,470.901 158.681,470.067 157.5,468.5 Z"/></g>
<g><path style="opacity:1" fill="#8a8c8c" d="M 208.5,469.5 C 202.793,471.441 196.793,472.608 190.5,473C 185.316,473.816 180.316,473.65 175.5,472.5C 177.167,472.5 178.833,472.5 180.5,472.5C 189.876,471.86 199.209,470.86 208.5,469.5 Z"/></g>
<g><path style="opacity:1" fill="#78797a" d="M 302.5,472.5 C 301.196,475.569 299.196,476.569 296.5,475.5C 298.5,474.5 300.5,473.5 302.5,472.5 Z"/></g>
<g><path style="opacity:1" fill="#a9abac" d="M 259.5,476.5 C 248.841,475.227 238.174,475.227 227.5,476.5C 227.918,475.778 228.584,475.278 229.5,475C 238.833,474.333 248.167,474.333 257.5,475C 258.416,475.278 259.082,475.778 259.5,476.5 Z"/></g>
<g><path style="opacity:1" fill="#919293" d="M 268.5,477.5 C 271.152,477.41 273.485,478.076 275.5,479.5C 275.167,479.5 274.833,479.5 274.5,479.5C 272.214,479.405 270.214,478.738 268.5,477.5 Z"/></g>
<g><path style="opacity:1" fill="#878889" d="M 78.5,479.5 C 80.8333,479.833 82.1667,481.167 82.5,483.5C 80.8333,482.5 79.5,481.167 78.5,479.5 Z"/></g>
<g><path style="opacity:1" fill="#484849" d="M 152.5,479.5 C 153.167,479.5 153.833,479.5 154.5,479.5C 137.198,481.486 119.532,482.153 101.5,481.5C 100.833,481.5 100.5,481.167 100.5,480.5C 118.008,480.83 135.341,480.497 152.5,479.5 Z"/></g>
<g><path style="opacity:1" fill="#4a4a4b" d="M 219.5,478.5 C 219.082,479.222 218.416,479.722 217.5,480C 236.671,480.829 255.671,480.662 274.5,479.5C 274.833,479.5 275.167,479.5 275.5,479.5C 275.833,479.5 276.167,479.5 276.5,479.5C 266.355,480.832 255.855,481.499 245,481.5C 234.5,481.333 224,481.167 213.5,481C 214.056,480.617 214.389,480.117 214.5,479.5C 216.117,478.962 217.784,478.629 219.5,478.5 Z"/></g>
<g><path style="opacity:1" fill="#adaeaf" d="M 154.5,479.5 C 156.195,480.011 157.861,480.678 159.5,481.5C 140.004,482.828 120.671,482.828 101.5,481.5C 119.532,482.153 137.198,481.486 154.5,479.5 Z"/></g>
<g><path style="opacity:1" fill="#acaeaf" d="M 214.5,479.5 C 214.389,480.117 214.056,480.617 213.5,481C 224,481.167 234.5,481.333 245,481.5C 255.855,481.499 266.355,480.832 276.5,479.5C 278.09,479.628 279.423,480.295 280.5,481.5C 256.167,482.833 231.833,482.833 207.5,481.5C 209.777,480.579 212.11,479.913 214.5,479.5 Z"/></g>
<g><path style="opacity:1" fill="#727373" d="M 87.5,488.5 C 89.0269,488.427 90.0269,489.094 90.5,490.5C 88.9731,490.573 87.9731,489.906 87.5,488.5 Z"/></g>
</svg>
